<?xml version="1.0" encoding="UTF-8" standalone="no"?>
<!-- Created with Inkscape (http://www.inkscape.org/) -->

<svg
   xmlns:dc="http://purl.org/dc/elements/1.1/"
   xmlns:cc="http://creativecommons.org/ns#"
   xmlns:rdf="http://www.w3.org/1999/02/22-rdf-syntax-ns#"
   xmlns:svg="http://www.w3.org/2000/svg"
   xmlns="http://www.w3.org/2000/svg"
   xmlns:sodipodi="http://sodipodi.sourceforge.net/DTD/sodipodi-0.dtd"
   xmlns:inkscape="http://www.inkscape.org/namespaces/inkscape"
   version="1.1"
   width="63.294159"
   height="14.732322"
   id="svg3161"
   inkscape:version="0.91 r13725"
   sodipodi:docname="logo.svg">
  <sodipodi:namedview
     pagecolor="#ffffff"
     bordercolor="#666666"
     borderopacity="1"
     objecttolerance="10"
     gridtolerance="10"
     guidetolerance="10"
     inkscape:pageopacity="0"
     inkscape:pageshadow="2"
     inkscape:window-width="1366"
     inkscape:window-height="704"
     id="namedview19"
     showgrid="false"
     fit-margin-top="0"
     fit-margin-left="0"
     fit-margin-right="0"
     fit-margin-bottom="0"
     inkscape:zoom="3.6769485"
     inkscape:cx="-146.81031"
     inkscape:cy="34.913997"
     inkscape:window-x="0"
     inkscape:window-y="27"
     inkscape:window-maximized="1"
     inkscape:current-layer="svg3161" />
  <defs
     id="defs3163" />
  <metadata
     id="metadata3166">
    <rdf:RDF>
      <cc:Work
         rdf:about="">
        <dc:format>image/svg+xml</dc:format>
        <dc:type
           rdf:resource="http://purl.org/dc/dcmitype/StillImage" />
        <dc:title></dc:title>
      </cc:Work>
    </rdf:RDF>
  </metadata>
  <g
     id="g3371"
     transform="scale(0.42196028,0.42196028)"
     inkscape:export-xdpi="89"
     inkscape:export-ydpi="89">
    <path
       inkscape:connector-curvature="0"
       style="fill:#78143e;fill-opacity:1;fill-rule:evenodd;stroke:none"
       id="path18"
       d="m 26.687424,23.11499 -13.342206,-7.706588 13.342206,-7.7047947 0,15.4113827" />
    <path
       inkscape:connector-curvature="0"
       style="fill:#eb1547;fill-opacity:1;fill-rule:nonzero;stroke:none"
       id="path20"
       d="m 26.687424,7.7036073 13.347605,7.7065837 -13.347605,7.704799 0,-15.4113827" />
    <path
       inkscape:connector-curvature="0"
       style="fill:#f7c41a;fill-opacity:1;fill-rule:evenodd;stroke:none"
       id="path22"
       d="M 13.345218,15.408402 -6.4622959e-7,7.7036073 13.345218,-5.451088e-7 13.345218,15.408402" />
    <path
       inkscape:connector-curvature="0"
       style="fill:#24527f;fill-opacity:1;fill-rule:evenodd;stroke:none"
       id="path24"
       d="M 13.345218,30.816211 -6.4622959e-7,23.11499 13.345218,15.408406 l 0,15.407805" />
    <path
       inkscape:connector-curvature="0"
       style="fill:#ef3a20;fill-opacity:1;fill-rule:evenodd;stroke:none"
       id="path26"
       d="M 13.345218,-5.451088e-7 26.687424,7.7036073 13.345218,15.408402 l 0,-15.4084025451088" />
    <path
       inkscape:connector-curvature="0"
       style="fill:#73cfc6;fill-opacity:1;fill-rule:evenodd;stroke:none"
       id="path28"
       d="m 13.345218,15.408402 13.342206,7.706588 -13.342206,7.701221 0,-15.407809" />
    <path
       inkscape:connector-curvature="0"
       style="fill:#999999;fill-opacity:1;fill-rule:nonzero;stroke:none"
       id="path30"
       d="m 64.538417,18.54846 4.973321,1.580146 c -0.762412,2.776728 -2.031023,4.838729 -3.805937,6.186588 -1.774918,1.348461 -4.026348,2.022094 -6.760168,2.022094 -3.377102,0 -6.152634,-1.154291 -8.332569,-3.462871 -2.173971,-2.307985 -3.263937,-5.462326 -3.263937,-9.466011 0,-4.233589 1.095935,-7.5225422 3.28775,-9.8656692 2.185905,-2.3425294 5.056699,-3.5140888 8.62443,-3.5140888 3.109054,0 5.640415,0.9190243 7.576122,2.7594556 1.161468,1.0875789 2.031023,2.6492666 2.608775,4.684461 L 64.359722,10.688202 C 64.055928,9.3695275 63.430549,8.3278074 62.477612,7.5636398 61.518656,6.8006634 60.363156,6.4188784 58.999229,6.4188784 c -1.888075,0 -3.418814,0.6766133 -4.592162,2.0304293 -1.173349,1.3538243 -1.757016,3.5462583 -1.757016,6.5785053 0,3.215093 0.571783,5.505807 1.733198,6.870946 1.1555,1.365136 2.662371,2.048295 4.514752,2.048295 1.363924,0 2.537272,-0.434198 3.520046,-1.302001 0.982719,-0.867802 1.685566,-2.232344 2.12037,-4.096593" />
    <path
       inkscape:connector-curvature="0"
       style="fill:#999999;fill-opacity:1;fill-rule:nonzero;stroke:none"
       id="path32"
       d="m 72.465965,27.90309 0,-18.4305254 4.878003,0 0,18.4305254 -4.878003,0 z m 0,-20.9291027 0,-4.5123367 4.878003,0 0,4.5123367 -4.878003,0" />
    <path
       inkscape:connector-curvature="0"
       style="fill:#999999;fill-opacity:1;fill-rule:nonzero;stroke:none"
       id="path34"
       d="m 85.58719,27.90309 -4.878004,0 0,-18.4305254 4.526632,0 0,2.6206834 c 0.780261,-1.237678 1.477089,-2.053068 2.090588,-2.4473636 0.625383,-0.3913112 1.328176,-0.5890547 2.114406,-0.5890547 1.107814,0 2.179931,0.3061436 3.204371,0.919622 l -1.500956,4.2520523 c -0.827896,-0.532474 -1.590254,-0.798712 -2.293101,-0.798712 -0.678979,0 -1.262646,0.188209 -1.733197,0.564042 -0.476471,0.375828 -0.85171,1.055422 -1.119753,2.03996 -0.279922,0.98335 -0.410986,3.041773 -0.410986,6.177655 l 0,5.691641" />
    <path
       inkscape:connector-curvature="0"
       style="fill:#999999;fill-opacity:1;fill-rule:nonzero;stroke:none"
       id="path36"
       d="m 97.195629,18.68783 c 0,1.82792 0.440773,3.228197 1.304412,4.200232 0.869555,0.971442 1.941679,1.457455 3.210289,1.457455 1.27463,0 2.34078,-0.486013 3.20442,-1.457455 0.85767,-0.972035 1.29243,-2.383034 1.29243,-4.23478 0,-1.804697 -0.43476,-3.19306 -1.29243,-4.165095 -0.86364,-0.972031 -1.92979,-1.456858 -3.20442,-1.456858 -1.26861,0 -2.34073,0.484827 -3.210289,1.456858 -0.863643,0.972035 -1.304412,2.372909 -1.304412,4.199643 z m -4.997134,-0.259683 c 0,-1.620062 0.404972,-3.186514 1.203131,-4.702933 0.79214,-1.515231 1.923773,-2.673686 3.388981,-3.47121 1.45924,-0.7987111 3.097175,-1.1971743 4.901873,-1.1971743 2.78746,0 5.0746,0.9059242 6.85548,2.7165773 1.78083,1.809457 2.67425,4.097784 2.67425,6.863201 0,2.788043 -0.90531,5.098411 -2.70403,6.93289 -1.79282,1.833279 -4.06205,2.750519 -6.78995,2.750519 -1.69153,0 -3.299687,-0.381789 -4.830426,-1.146551 -1.536654,-0.761785 -2.704033,-1.882716 -3.496178,-3.358041 -0.798159,-1.474726 -1.203131,-3.269892 -1.203131,-5.387278" />
    <path
       inkscape:connector-curvature="0"
       style="fill:#999999;fill-opacity:1;fill-rule:nonzero;stroke:none"
       id="path38"
       d="m 118.30402,18.376327 c 0,2.070336 0.41099,3.60105 1.23291,4.589763 0.81596,0.989303 1.81658,1.48366 3.00186,1.48366 1.13168,0 2.07274,-0.453857 2.82913,-1.36216 0.75048,-0.907709 1.12572,-2.397325 1.12572,-4.468852 0,-1.930966 -0.38717,-3.367575 -1.16147,-4.303871 -0.77423,-0.936296 -1.73319,-1.405636 -2.88272,-1.405636 -1.1912,0 -2.17994,0.460403 -2.96612,1.379427 -0.78623,0.92022 -1.17931,2.282375 -1.17931,4.087669 z m -4.82446,-8.9037624 4.54453,0 0,2.7070464 c 0.58964,-0.923793 1.39371,-1.676642 2.4003,-2.2555765 1.00062,-0.5777395 2.12037,-0.8672048 3.34135,-0.8672048 2.14419,0 3.96082,0.8386177 5.44984,2.5158573 1.49499,1.679614 2.24541,4.015589 2.24541,7.011504 0,3.076918 -0.75639,5.469478 -2.25735,7.175898 -1.50687,1.707014 -3.32941,2.559928 -5.47365,2.559928 -1.0125,0 -1.93571,-0.202505 -2.7636,-0.60812 -0.82789,-0.404416 -1.6975,-1.097703 -2.60877,-2.082245 l 0,9.284348 -4.87806,0 0,-25.4414354" />
    <path
       inkscape:connector-curvature="0"
       style="fill:#999999;fill-opacity:1;fill-rule:nonzero;stroke:none"
       id="path40"
       d="m 145.15406,17.108866 c -0.0358,-1.410994 -0.39906,-2.484879 -1.09589,-3.219265 -0.69091,-0.733787 -1.53074,-1.101878 -2.53136,-1.101878 -1.06018,0 -1.94167,0.387148 -2.63855,1.162631 -0.69092,0.776076 -1.0304,1.827924 -1.02444,3.158512 l 7.29024,0 z m -0.27993,4.928068 4.86612,0.816584 c -0.63134,1.782062 -1.61412,3.138858 -2.96611,4.068007 -1.34608,0.932128 -3.03164,1.398492 -5.05078,1.398492 -3.21034,0 -5.58086,-1.046481 -7.12348,-3.140647 -1.2091,-1.678427 -1.81663,-3.795224 -1.81663,-6.353358 0,-3.05369 0.79811,-5.443867 2.39439,-7.175305 1.59622,-1.7284574 3.6153,-2.5938773 6.05731,-2.5938773 2.73979,0 4.90187,0.9059242 6.49213,2.7165773 1.57837,1.809457 2.33481,4.583806 2.26928,8.321254 l -12.21592,0 c 0.0358,1.445542 0.42884,2.570644 1.17932,3.374714 0.75042,0.804668 1.68556,1.206709 2.81123,1.206709 0.76241,0 1.40564,-0.209058 1.92979,-0.625395 0.51819,-0.416922 0.91128,-1.087579 1.17335,-2.013755" />
  </g>
</svg>
